<svg xmlns="http://www.w3.org/2000/svg" width="310" height="310" viewBox="0 0 310 310">
  <g id="Group_2315" data-name="Group 2315" transform="translate(10867 -2725.523)">
    <g id="Group_2311" data-name="Group 2311" transform="translate(-10867 2726)">
      <g id="Group_2309" data-name="Group 2309">
        <rect id="Rectangle_2464" data-name="Rectangle 2464" width="310" height="310" rx="80" transform="translate(0 -0.477)" fill="#fff"/>
      </g>
    </g>
    <g id="Group_2312" data-name="Group 2312" transform="translate(-10840.537 2802.159)">
      <g id="Hat" transform="translate(0 0)">
        <path id="Path_961" data-name="Path 961" d="M0,0-.079,2.507C-.183,6.254-.248,10-.312,13.75L-.439,17.7l-.049,3.789-.079,3.491c.3,3.2.3,3.2,2.875,5.309C13.9,37.671,26.7,41.884,40,45l2.91.711c28.965,6.178,63.747.491,88.786-15.424,2.568-2.116,2.568-2.116,2.872-5.311-.027-1.152-.053-2.3-.08-3.491-.016-1.25-.032-2.5-.049-3.789-.062-1.953-.062-1.953-.126-3.945-.023-1.317-.046-2.635-.069-3.992Q134.155,4.877,134,0c40.077-6.963,40.077-6.963,57,4,4.1,3.809,4.324,7.37,4.563,12.75C195.188,28.248,189.316,35.587,182,44l-2.574,2.98C154.9,74.842,120.479,87.53,84,90,42.768,91.609-2.553,87.571-34.437,58.438A128.8,128.8,0,0,1-47,45l-2.246-2.809c-7.869-10.143-12.74-17.739-12.227-30.82C-60.78,6.429-59.993,5.015-56,2-39.356-7.063-17.842-3.828,0,0Z" transform="translate(61.51 66.427)" fill="#081b26"/>
        <path id="Path_962" data-name="Path 962" d="M0,0Q1.994.932,3.98,1.879C15.505,7.3,28,9.387,40.418,5.5,43.887,4.078,47.282,2.491,50.685.917,55.91-1.437,59.635-2.522,65.418-1.5c9.337,4.669,12.587,12.675,16,22,1.238,4.234,2.212,8.5,3.125,12.812l.762,3.543A283.409,283.409,0,0,1,90.418,70.5l.261,2.837c1.213,14.822,1.213,14.822-1.749,19.526A26.29,26.29,0,0,1,81.418,96.5l-3.27,1.48C46.658,111.8,11.967,112.312-20.1,100.226c-12.862-5.105-12.862-5.105-17.479-9.722-1.152-19.339,1.808-38.4,5.875-57.25l.7-3.314C-28.528,19.023-25.273,8.087-16.582.5-10.951-2.839-5.881-2.456,0,0ZM4.418,27.5v4q3.06.976,6.125,1.937l3.445,1.09c10.574,3,20.018,2.506,30.43-1.027,1.695-.952,3.371-1.939,5-3l-1-3a38.551,38.551,0,0,0-8.664,2.019,39.673,39.673,0,0,1-12.086,1.293l-2.411,0A41.211,41.211,0,0,1,10.363,28.16C8.128,27.291,8.128,27.291,4.418,27.5Z" transform="translate(102.092 1.923)" fill="#081b26"/>
      </g>
    </g>
  </g>
</svg>
